<?xml version="1.0" encoding="utf-8"?>
<!-- Generator: Adobe Illustrator 21.1.0, SVG Export Plug-In . SVG Version: 6.00 Build 0)  -->
<svg version="1.1" id="Layer_1" xmlns="http://www.w3.org/2000/svg" xmlns:xlink="http://www.w3.org/1999/xlink" x="0px" y="0px"
	 viewBox="0 0 133.7748718 83.9665527" style="enable-background:new 0 0 133.7748718 83.9665527;" xml:space="preserve">
<style type="text/css">
	.st0{fill:#FDB913;}
	.st1{fill:#B5D334;}
	.st2{fill:#00B3DF;}
	.st3{fill:#07A88F;}
	.st4{fill:#FDDD00;}
	.st5{fill:#0090BA;}
	.st6{fill:#005C91;}
	.st7{fill:#F99B1C;}
	.st8{fill:#ED2124;}
</style>
<path d="M0,38.9560547c0.7799988-0.0307617,1.5319977,0.078125,2.2569885,0.3891602
	c1.0590057,0.4538574,1.779007,1.2080078,2.1410065,2.3039551c0.0139923,0.0419922,0.0299988,0.0839844,0.0500031,0.1369629
	c0.2339935-0.3520508,0.4449921-0.697998,0.6839905-1.0239258c0.8099976-1.1010742,1.9110107-1.7770996,3.227005-2.0791016
	c0.6179962-0.1428223,1.2649994-0.230957,1.897995-0.2258301c1.0429993,0.0078125,2.0800018,0.1437988,3.0469971,0.5878906
	c1.1800079,0.5419922,2.0410004,1.4060059,2.5930023,2.5810547c0.0270081,0.0578613,0.0630035,0.1130371,0.1080017,0.1928711
	c0.1950073-0.2719727,0.3740082-0.5288086,0.5590057-0.7810059c0.9810028-1.3378906,2.2899933-2.1550293,3.927002-2.4208984
	c0.5739899-0.0930176,1.1599884-0.1779785,1.7379913-0.1630859c1.2770081,0.032959,2.5200043,0.2451172,3.6320038,0.9440918
	c1.4689941,0.921875,2.2279968,2.3168945,2.6419983,3.9428711c0.2830048,1.1120605,0.3500061,2.2441406,0.3460083,3.3881836
	c-0.0100098,3.6269531-0.003006,7.2529297-0.003006,10.8798828v0.2370605
	c-0.8829956,0.0820312-1.7140045-0.0581055-2.5119934-0.4099121c-1.1660004-0.5151367-1.8410034-1.4240723-2.098999-2.6560059
	c-0.0480042-0.2280273-0.0700073-0.4660645-0.0700073-0.6992188c-0.0050049-2.4279785,0.0130005-4.8549805-0.0119934-7.2819824
	c-0.0090027-0.8640137-0.1240082-1.7299805-0.529007-2.5148926c-0.3999939-0.7770996-1.0310059-1.2858887-1.8999939-1.4589844
	c-1.1260071-0.2241211-2.2100067-0.151123-3.1930084,0.5209961c-0.8639984,0.592041-1.3369904,1.4509277-1.552002,2.4379883
	c-0.147995,0.684082-0.2269897,1.3969727-0.2319946,2.0979004c-0.0249939,3.1030273-0.0110016,6.2070312-0.0110016,9.3100586
	v0.3630371h-4.6710052c-0.0039978-0.0869141-0.0119934-0.1789551-0.0119934-0.2700195
	c-0.0010071-3.7319336,0.0180054-7.4638672-0.0130005-11.1950684c-0.0079956-0.9968262-0.253006-1.9570312-1.0429993-2.6809082
	c-0.4349976-0.3979492-0.9559937-0.611084-1.5209961-0.6650391c-0.8500061-0.0810547-1.697998-0.0310059-2.4889984,0.3430176
	c-1.1830139,0.5600586-1.8450012,1.5339355-2.1230011,2.7770996c-0.1090088,0.4919434-0.1700134,1.0048828-0.1720123,1.5078125
	c-0.0149994,3.2751465-0.0079956,6.5490723-0.0079956,9.8242188v0.3808594H0V38.9560547z"/>
<path class="st0" d="M43.925293,0c0.4429932,0.0390625,0.8849945,0.0952148,1.3289948,0.1091309
	c0.2369995,0.0070801,0.3079987,0.0791016,0.3040009,0.3139648c-0.0279999,1.5310059-0.0420074,3.0629883-0.0619965,4.5939941
	c-0.0180054,1.4550781-0.0380096,2.9099121-0.0559998,4.3649902c-0.0130005,1.0939941-0.0210114,2.1879883-0.0360107,3.2819824
	c-0.0269928,1.9689941-0.0569916,3.9379883-0.0839996,5.9060059c-0.0110016,0.7709961-0.0169983,1.5410156-0.0249939,2.3110352
	c-0.0010071,0.1120605,0,0.2241211,0,0.3901367c-0.4440002-0.078125-0.8480072-0.1540527-1.2539978-0.217041
	c-1.2160034-0.1870117-2.4309998-0.3869629-3.6500092-0.5480957c-0.9680023-0.1269531-1.9409943-0.2089844-2.9129944-0.2980957
	c-0.1829987-0.0158691-0.2140045-0.0898438-0.2109985-0.25c0.0319977-1.6447754,0.0639954-3.2897949,0.0859985-4.9348145
	c0.0130005-0.9799805,0.0019989-1.9611816,0.0130005-2.9411621c0.0200043-1.9299316,0.0460052-3.8608398,0.071991-5.7910156
	c0.0190125-1.4838867,0.0420074-2.9667969,0.0640106-4.4509277c0.0070038-0.4560547,0.026001-0.9130859,0.0209961-1.3688965
	c-0.0019989-0.177002,0.0650024-0.2290039,0.2279968-0.2421875c0.7100067-0.052002,1.4190063-0.112793,2.128006-0.1738281
	C39.97229,0.0471191,40.0632782,0.019043,40.1552887,0H43.925293z"/>
<path d="M67.892395,76.3696289c1.993988-0.0588379,3.1699829-1.3129883,3.1419983-3.1350098
	c-0.0299988-2.013916-1.2770081-3.0769043-3.1190033-3.065918c-1.9299927,0.0119629-3.0939941,1.1999512-3.1159973,3.1308594
	C64.7793884,75.0056152,66.0783844,76.3127441,67.892395,76.3696289 M66.3733978,83.9665527
	c-0.3630066-0.0749512-0.7260132-0.152832-1.0900116-0.2248535c-1.0359955-0.2019043-1.9550018-0.6469727-2.7689972-1.3171387
	c-0.072998-0.0598145-0.151001-0.112793-0.2559967-0.1918945c0.5460052-0.744873,1.0869904-1.4829102,1.6129913-2.1999512
	c0.4520111,0.3139648,0.8580017,0.638916,1.303009,0.8959961c0.6230011,0.3598633,1.302002,0.5539551,2.0330048,0.5898438
	c0.5859985,0.0280762,1.1519928-0.0097656,1.719986-0.1689453c0.8570099-0.2390137,1.4069977-0.7929688,1.7119904-1.6040039
	c0.2879944-0.7658691,0.2669983-1.5649414,0.2369995-2.3430176c-0.3759766,0.2841797-0.7259827,0.6062012-1.1259766,0.8381348
	c-0.5559998,0.3210449-1.1750031,0.467041-1.8220062,0.5368652c-1.0310059,0.1130371-2.0050049-0.0568848-2.9290009-0.5009766
	c-1.4629974-0.7028809-2.3220062-1.8989258-2.7389984-3.440918c-0.1869965-0.6921387-0.2200012-1.4020996-0.1629944-2.1069336
	c0.1009979-1.2312012,0.4879913-2.3740234,1.3089905-3.3190918c0.7830048-0.9020996,1.7839966-1.4489746,2.977005-1.6069336
	c0.8190002-0.1081543,1.6360016-0.1210938,2.4409943,0.1130371c0.8730011,0.2539062,1.5850067,0.7338867,2.1089935,1.4829102
	c0.0249939,0.0358887,0.0540161,0.0690918,0.1220093,0.1540527V67.987793h2.571991v0.4057617
	c0,3.2270508,0.0249939,6.4541016-0.0119934,9.6811523c-0.0150146,1.3640137-0.3080139,2.6789551-1.1340027,3.8249512
	c-0.743988,1.0339355-1.7730103,1.6010742-2.9809875,1.894043c-0.2779999,0.0678711-0.5610046,0.1159668-0.8420105,0.1728516
	H66.3733978z"/>
<path d="M123.7218933,83.9665527c-0.2890015-0.0578613-0.5770264-0.1179199-0.8670044-0.171875
	c-0.1630249-0.0310059-0.2460022-0.105957-0.2200012-0.2858887c0.1089783-0.7412109,0.2120056-1.4821777,0.315979-2.2092285
	c0.4510193,0.0900879,0.8919983,0.2001953,1.3390198,0.2612305c0.8370056,0.1149902,1.6000061-0.3510742,1.940979-1.1572266
	c0.2080078-0.4929199,0.4200134-0.9838867,0.6080017-1.4838867c0.0429993-0.1130371,0.0310059-0.2749023-0.0169983-0.388916
	c-1.0480042-2.4899902-2.1019897-4.9770508-3.1579895-7.4631348c-0.4100037-0.9660645-0.8280029-1.9289551-1.2399902-2.8950195
	c-0.0209961-0.0488281-0.0200195-0.1069336-0.0360107-0.1999512h0.8370056c0.6470032,0,1.2940063,0.0039062,1.940979-0.0039062
	c0.1460266-0.0009766,0.2130127,0.0388184,0.2690125,0.1789551c0.3730164,0.9509277,0.7600098,1.8950195,1.1400146,2.8430176
	c0.5549927,1.3818359,1.1080017,2.7648926,1.6619873,4.1469727c0.0209961,0.052002,0.0469971,0.1030273,0.0910034,0.1989746
	c0.2330017-0.6499023,0.4509888-1.2609863,0.6719971-1.8710938c0.6359863-1.7600098,1.2770081-3.5187988,1.9060059-5.2819824
	c0.0579834-0.1638184,0.1289978-0.2158203,0.2989807-0.2148438c0.8570251,0.0090332,1.7140198,0.0039062,2.5700073,0.0039062
	v0.2290039c-0.1119995,0.2429199-0.2359924,0.480957-0.3330078,0.7299805
	c-1.0329895,2.6589355-2.0589905,5.3210449-3.0929871,7.980957c-0.605011,1.5529785-1.2009888,3.1091309-1.8399963,4.6481934
	c-0.3730164,0.9008789-0.9249878,1.6838379-1.8699951,2.0808105c-0.3309937,0.1391602-0.6870117,0.2180176-1.0320129,0.3249512
	H123.7218933z"/>
<path class="st1" d="M72.6498108,31.673584c-0.855011-0.3498535-1.6550293-0.6938477-2.4660034-1.0068359
	c-2.2890015-0.8830566-4.5749969-1.7739258-6.8760071-2.6230469c-1.8829956-0.6950684-3.7879944-1.3320312-5.6779938-2.0080566
	c-0.0749969-0.0258789-0.1470032-0.1809082-0.1470032-0.2749023c0.0050049-0.9990234,0.0279999-1.9980469,0.0390015-2.9970703
	c0.0240021-2.1879883,0.0419922-4.3759766,0.0650024-6.5639648c0.0169983-1.5019531,0.0390015-3.0048828,0.0579987-4.5070801
	c0.0189972-1.5029297,0.0350037-3.0048828,0.0569916-4.5078125c0.0250092-1.6931152,0.0550079-3.3862305,0.0810089-5.078125
	c0.0029907-0.1870117,0.0009918-0.3730469,0.0009918-0.5969238c0.4790039,0.1459961,0.9300079,0.2749023,1.3740082,0.421875
	c2.0330048,0.6721191,4.072998,1.3271484,6.0939941,2.032959c1.7620087,0.6149902,3.5050049,1.2851562,5.2519836,1.9421387
	c0.6719971,0.2529297,1.3280029,0.5478516,2.0010071,0.8000488c0.256012,0.0959473,0.3300171,0.2319336,0.3280029,0.5
	c-0.0230103,2.2458496-0.0279846,4.4919434-0.0400085,6.7368164c-0.0159912,2.8352051-0.0350037,5.6711426-0.052002,8.5061035
	c-0.0139771,2.3688965-0.0249939,4.7390137-0.039978,7.1079102c-0.0039978,0.5991211-0.0160217,1.1989746-0.026001,1.7980957
	C72.6727905,31.4477539,72.6607971,31.5407715,72.6498108,31.673584"/>
<path d="M52.086792,48.2314453c0.0780029,0.5090332,0.1150055,1.0290527,0.2420044,1.526123
	c0.3860016,1.5070801,1.2409973,2.677002,2.6269989,3.4121094c1.1589966,0.6149902,2.3919983,0.7687988,3.6869965,0.5288086
	c1.3650055-0.2529297,2.4649963-0.9379883,3.2630005-2.0478516c1.0359955-1.4421387,1.3370056-3.0749512,0.9140015-4.795166
	c-0.4290009-1.7399902-1.4420013-3.0368652-3.1329956-3.737793c-1.0850067-0.4501953-2.2080078-0.5021973-3.348999-0.2780762
	c-1.253006,0.2458496-2.2630005,0.8879395-3.0390015,1.8959961C52.5087891,45.7624512,52.1268005,46.9284668,52.086792,48.2314453
	 M52.264801,55.2524414c0,0.1000977,0,0.2001953,0,0.3000488c0,2.1601562,0.0119934,4.3210449-0.0050049,6.480957
	c-0.0090027,1.197998-0.4530029,2.2290039-1.3509979,3.0310059c-0.7600098,0.6801758-1.678009,1.0541992-2.6719971,1.2512207
	c-0.2100067,0.0407715-0.4230042,0.0678711-0.6460114,0.1027832V38.9814453
	c1.5279999-0.1708984,3.8480072,0.5270996,4.4629974,2.6901855c0.2620087-0.3261719,0.5120087-0.6621094,0.7880096-0.9760742
	c0.6459961-0.7329102,1.4499969-1.2490234,2.345993-1.6179199c0.8820038-0.3630371,1.8050079-0.5280762,2.7610016-0.5871582
	c2.1990051-0.1340332,4.2180023,0.375,6.0240021,1.6311035c0.7149963,0.4970703,1.3099976,1.138916,1.8289948,1.8469238
	c0.9660034,1.3161621,1.5180054,2.8029785,1.7519989,4.3959961c0.1270142,0.8659668,0.1679993,1.7600098,0.1180115,2.6330566
	c-0.0980072,1.7260742-0.5540009,3.3640137-1.4680023,4.8530273c-1.2389984,2.0209961-3.003006,3.3388672-5.2960052,3.9379883
	c-0.9869995,0.2580566-2.0019989,0.3081055-3.0110016,0.236084c-1.4559937-0.1030273-2.8359985-0.5-4.0249939-1.3771973
	c-0.5209961-0.3850098-0.9629974-0.8759766-1.4380035-1.3217773c-0.0319977-0.0310059-0.0410004-0.0871582-0.0610046-0.1311035
	C52.336792,55.213623,52.3007965,55.2336426,52.264801,55.2524414"/>
<path class="st2" d="M98.2939148,38.3859863c-3.7220154-0.7199707-7.2880249-1.6569824-10.8360291-2.6638184
	c0-1.3459473-0.0069885-2.6750488,0.0030212-4.0031738c0.0090027-1.3308105,0.0350037-2.6599121,0.052002-3.9899902
	c0.0220032-1.6728516,0.0429993-3.3459473,0.0629883-5.0187988c0.0180054-1.4741211,0.0339966-2.9492188,0.053009-4.4230957
	c0.0169983-1.3400879,0.0379944-2.6809082,0.0579834-4.0209961c0.0010071-0.0639648,0.0180054-0.1279297,0.0339966-0.2338867
	c0.3660278,0.1069336,0.7140198,0.2089844,1.0630188,0.3088379c1.9079895,0.5449219,3.8119812,1.1081543,5.7279968,1.6279297
	c1.2739868,0.3461914,2.5639954,0.6340332,3.848999,0.9382324c0.1719971,0.0407715,0.177002,0.138916,0.1719971,0.2678223
	c-0.019989,0.5600586-0.0509949,1.1201172-0.0559998,1.6801758c-0.0100098,1.2468262,0.0010071,2.4938965-0.0100098,3.7409668
	c-0.0130005,1.5688477-0.0390015,3.1379395-0.0599976,4.7070312c-0.0169983,1.3217773-0.0369873,2.6437988-0.0539856,3.9658203
	c-0.0209961,1.6931152-0.0410156,3.3859863-0.0580139,5.078125C98.2889099,37.0100098,98.2939148,37.6721191,98.2939148,38.3859863"
	/>
<path class="st3" d="M85.0794983,32.8496094c-3.6480103-1.1369629-7.2380066-2.348877-10.7810059-3.8269043
	c0.0319824-5.9189453,0.0650024-11.8588867,0.0969849-17.8310547c0.7310181,0.2980957,1.40802,0.5839844,2.0930176,0.8500977
	c1.3209839,0.5109863,2.6419983,1.0249023,3.9729919,1.5119629c1.5419922,0.5629883,3.0929871,1.1010742,4.6430054,1.6411133
	c0.1719971,0.0598145,0.2309875,0.1398926,0.2279968,0.3239746c-0.0299988,1.6638184-0.0500183,3.3288574-0.071991,4.9929199
	c-0.0180054,1.4741211-0.0340271,2.947998-0.052002,4.4221191c-0.0180054,1.5119629-0.0360107,3.0239258-0.0559998,4.5358887
	c-0.0140076,1.0449219-0.0299988,2.0900879-0.0460205,3.1350098C85.1054688,32.6757812,85.0904846,32.7478027,85.0794983,32.8496094
	"/>
<path d="M30.3825989,55.1477051c0.7019958-0.9619141,1.5629883-1.6948242,2.7489929-1.8959961
	c0.8059998-0.1347656,1.548996,0.1230469,2.2610016,0.545166c1.3950043,0.8269043,2.8670044,0.9589844,4.3710022,0.2958984
	c0.5469971-0.2419434,0.9869995-0.6120605,1.1779938-1.217041c0.2200012-0.6999512-0.0699921-1.4709473-0.7070007-1.9008789
	c-0.67099-0.4521484-1.4420013-0.625-2.2059937-0.822998c-1.2480011-0.3239746-2.5169983-0.5881348-3.7400055-0.9890137
	c-1.2689972-0.4160156-2.3170013-1.1740723-2.8880005-2.4519043c-0.2480011-0.5561523-0.3399963-1.1411133-0.397995-1.7470703
	c-0.0839996-0.8720703,0.0339966-1.7089844,0.3280029-2.5180664c0.4850006-1.3359375,1.4199982-2.2910156,2.6629944-2.9489746
	c0.9949951-0.5280762,2.0570068-0.8459473,3.1829987-0.940918c0.4600067-0.0390625,0.9210052-0.1210938,1.3789978-0.1062012
	c1.8050079,0.0600586,3.5610046,0.3530273,5.0720062,1.4301758c0.5159912,0.3679199,0.9440002,0.8620605,1.4129944,1.2978516
	c0.1190033,0.111084,0.0940094,0.1989746-0.0149994,0.3081055c-0.7290039,0.7260742-1.5659943,1.2758789-2.5890045,1.4550781
	c-0.7919922,0.138916-1.5690002,0.0009766-2.3009949-0.3391113c-0.4850006-0.2260742-0.9909973-0.315918-1.5249939-0.3410645
	c-0.5610046-0.0268555-1.0980072,0.0361328-1.6180115,0.236084c-0.7109985,0.2739258-1.3509979,0.8701172-1.29599,1.7839355
	c0.0350037,0.5839844,0.3959961,0.927002,0.8499908,1.1821289c0.7340088,0.4108887,1.5559998,0.5668945,2.3670044,0.7480469
	c1.2890015,0.2878418,2.5870056,0.5478516,3.8009949,1.0939941c1.5490112,0.6958008,2.6270142,1.8198242,2.901001,3.5297852
	c0.2550049,1.592041,0.1110077,3.144043-0.9279938,4.4931641c-0.6119995,0.7949219-1.3919983,1.3730469-2.2929993,1.7839355
	c-0.9429932,0.4299316-1.9320068,0.7270508-2.9700012,0.8029785c-0.8670044,0.0639648-1.7389984,0.138916-2.6049957,0.105957
	c-1.428009-0.0529785-2.8140106-0.3518066-4.0930023-1.0229492C31.8415985,56.5339355,31.0605927,55.9309082,30.3825989,55.1477051"
	/>
<path class="st4" d="M56.1770935,22.1623535c-0.5130005-0.1489258-1.0200043-0.2988281-1.5270081-0.4438477
	c-1.1679993-0.3330078-2.3320007-0.677002-3.5050049-0.9919434c-1.1169891-0.3000488-2.2419891-0.572998-3.3659973-0.8461914
	c-0.1799927-0.0439453-0.220993-0.1379395-0.2189941-0.2939453c0.0279999-2.1308594,0.0559998-4.2619629,0.0800018-6.3930664
	c0.0119934-1.0739746,0.0130005-2.1479492,0.0269928-3.2229004c0.0169983-1.3688965,0.0460052-2.7370605,0.0660095-4.1069336
	c0.0130005-0.8840332,0.019989-1.7680664,0.0289917-2.6520996c0.0010071-0.1689453,0-0.3388672,0-0.5559082
	c0.5090027,0.0998535,0.9909973,0.1789551,1.4649963,0.2890625c1.230011,0.2858887,2.4600067,0.5717773,3.6820068,0.8850098
	C54.0190887,4.1135254,55.1190796,4.4375,56.2250824,4.734375c0.1869965,0.0500488,0.1999969,0.1621094,0.197998,0.3171387
	c-0.0219879,1.7219238-0.0390015,3.4428711-0.0599976,5.1650391c-0.0209961,1.7390137-0.04599,3.4790039-0.0670013,5.2180176
	c-0.0220032,1.9589844-0.0390015,3.9179688-0.0639954,5.8769531C56.2290802,21.5864258,56.1970825,21.8605957,56.1770935,22.1623535
	"/>
<path class="st5" d="M100.4325867,19.392334c0.9039917,0.144043,1.8009949,0.2932129,2.6999817,0.427002
	c0.8190002,0.1220703,1.6380005,0.2351074,2.4599915,0.3361816c0.3560181,0.0439453,0.7180176,0.0549316,1.0770264,0.0668945
	c0.1889954,0.0061035,0.2639771,0.0671387,0.2609863,0.2709961c-0.0270081,1.5490723-0.0410156,3.097168-0.0620117,4.6459961
	c-0.0159912,1.2541504-0.0390015,2.5080566-0.0549927,3.7619629c-0.0220032,1.7199707-0.0419922,3.4401855-0.0570068,5.1601562
	c-0.0069885,0.7658691-0.0019836,1.5310059-0.0019836,2.3049316c-2.2229919,0.2929688-4.3789978,0.3200684-6.5400085,0.1101074
	c0-0.7102051-0.0010071-1.4101562,0.0010071-2.1101074c0-0.0939941,0.0279846-0.1879883,0.0289917-0.2819824
	c0.0010071-1.3129883-0.0079956-2.6269531,0.0020142-3.9399414c0.0109863-1.5390625,0.0359802-3.0791016,0.0569763-4.6181641
	c0.0180054-1.2919922,0.0370178-2.5849609,0.0580139-3.8769531c0.0119934-0.730957,0.0289917-1.4609375,0.0450134-2.1918945
	C100.4075623,19.4313965,100.4265747,19.4055176,100.4325867,19.392334"/>
<path d="M102.8587646,76.4841309c1.8619995-0.0249023,3.0740051-1.3637695,3.0780029-3.1369629
	c0.0039978-1.8498535-1.2460022-3.1870117-3.0929871-3.1809082c-1.8210144,0.0061035-3.0710144,1.2609863-3.0950012,3.1640625
	C99.7267761,75.0742188,100.9957886,76.5031738,102.8587646,76.4841309 M99.8497925,83.7241211h-2.7320251V67.9941406H99.65979
	v1.4941406c0.026001,0.019043,0.0509949,0.0378418,0.0769958,0.0568848c0.0339966-0.0578613,0.0650024-0.1179199,0.1040039-0.171875
	c0.651001-0.9221191,1.5509949-1.4260254,2.6589966-1.5739746c1.17099-0.1560059,2.3169861-0.078125,3.3809814,0.4799805
	c1.3529968,0.7099609,2.2030029,1.8369141,2.5599976,3.3149414c0.3980103,1.6469727,0.2980042,3.2548828-0.5359802,4.7629395
	c-0.7600098,1.3730469-1.9219971,2.2441406-3.4700012,2.5090332c-1.3280029,0.2270508-2.6150208,0.059082-3.7489929-0.7480469
	c-0.2960205-0.2099609-0.5510254-0.4768066-0.8359985-0.7258301V83.7241211z"/>
<path d="M5.7588959,76.484375c2.0449982-0.0078125,3.1520081-1.5119629,3.125-3.157959
	c-0.0330048-1.9729004-1.3280029-3.1608887-3.0859985-3.1618652c-1.8820038-0.0009766-3.072998,1.369873-3.1009979,3.1140137
	C2.6669006,75.1105957,3.9859009,76.4794922,5.7588959,76.484375 M0.0769043,67.984375h2.5409851v1.5671387
	c0.1410065-0.1660156,0.2380066-0.2700195,0.3250122-0.3820801c0.595993-0.769043,1.4089966-1.1948242,2.3409882-1.3540039
	c0.9440002-0.1618652,1.901001-0.1450195,2.8230133,0.1640625c1.5629883,0.5219727,2.5879974,1.6000977,3.1409912,3.1359863
	c0.3249969,0.8999023,0.423996,1.842041,0.3379974,2.7849121c-0.1360016,1.4951172-0.6749878,2.8200684-1.8389893,3.8320312
	c-0.7430115,0.6450195-1.598999,1.026123-2.5800018,1.1560059c-0.9649963,0.1269531-1.8939972,0.0371094-2.7890015-0.3469238
	c-0.5970001-0.2570801-1.1080017-0.6369629-1.5690002-1.1918945v6.3708496H0.0769043V67.984375z"/>
<path d="M113.7829895,78.6445312h-2.6710205V61.8835449h2.6589966v7.5131836
	c0.3930054-0.657959,0.9330139-1.1501465,1.6340027-1.3850098c1.45401-0.4880371,2.8770142-0.453125,4.1390076,0.5419922
	c0.70401,0.5559082,1.0620117,1.342041,1.1990051,2.2119141c0.0849915,0.5471191,0.1139832,1.1069336,0.117981,1.6611328
	c0.0130005,1.9609375,0.0050049,3.921875,0.0050049,5.8828125v0.3271484h-2.7420044V78.331543
	c0-1.902832,0.0210266-3.8068848-0.0139771-5.7099609c-0.0090027-0.4838867-0.1440125-0.9829102-0.309021-1.4428711
	c-0.2189941-0.605957-0.6990051-0.920166-1.3549805-0.9841309c-0.7610168-0.072998-1.4320068,0.1000977-1.9670105,0.657959
	c-0.4049988,0.4230957-0.6199951,0.9560547-0.631012,1.5310059c-0.0390015,1.9851074-0.04599,3.9711914-0.0649719,5.9560547
	C113.7819824,78.4335938,113.7829895,78.5266113,113.7829895,78.6445312"/>
<path d="M23.9904022,78.6445312h-2.7420044v-0.3117676c0-1.8181152,0.0149994-3.6362305-0.0100098-5.453125
	c-0.0069885-0.480957-0.0970001-0.9709473-0.2220001-1.4370117c-0.1949921-0.7260742-0.6629944-1.1730957-1.4529877-1.2460938
	c-1.4440002-0.1347656-2.5140076,0.703125-2.5810089,2.130127c-0.0910034,1.9719238-0.0559998,3.9499512-0.0749969,5.9260254
	c-0.0010071,0.1220703,0,0.2438965,0,0.3859863h-2.6710052V61.8735352h2.6549988v7.4692383
	c0.0170135,0.0068359,0.0350037,0.013916,0.053009,0.0209961c0.1060028-0.1530762,0.197998-0.3190918,0.3209991-0.4570312
	c0.6589966-0.7390137,1.4850006-1.1311035,2.4779968-1.1621094c0.7100067-0.0229492,1.4140015-0.0058594,2.0810089,0.2861328
	c1.1079865,0.4858398,1.7329865,1.3649902,1.9849854,2.5129395c0.1110077,0.5019531,0.1680145,1.0249023,0.1730042,1.5390625
	c0.0189972,2.0739746,0.0080109,4.1489258,0.0080109,6.2229004V78.6445312z"/>
<path d="M35.3000946,73.3500977c-0.0099945-1.9370117-1.3569946-3.1970215-3.0910034-3.1860352
	c-1.776001,0.0119629-2.9799957,1.25-3.0749969,2.9980469c-0.1049957,1.9289551,1.3410034,3.2819824,2.9729919,3.3300781
	C33.98909,76.5471191,35.3200989,75.0490723,35.3000946,73.3500977 M32.2341003,67.7490234
	c1.0839996-0.065918,2.1019897,0.1970215,3.0339966,0.722168c1.3349915,0.7519531,2.2350006,1.8859863,2.5889893,3.3840332
	c0.4100037,1.7358398,0.1720123,3.3859863-0.8999939,4.8508301c-0.8560028,1.1691895-2.0440063,1.8481445-3.4539948,2.1081543
	c-0.5709991,0.105957-1.1679993,0.1499023-1.7460022,0.1140137c-1.272995-0.078125-2.4290009-0.4970703-3.4300079-1.3251953
	c-1.0690002-0.8859863-1.6749878-2.0297852-1.8659973-3.3737793c-0.3179932-2.2290039,0.4620056-4.4631348,2.6869965-5.7470703
	C30.0920868,67.9382324,31.1320953,67.6821289,32.2341003,67.7490234"/>
<path d="M51.2937927,73.3068848c-0.0709991,1.7358398,1.3029938,3.2919922,3.2720032,3.1779785
	c1.625-0.0930176,2.8659973-1.3681641,2.8889923-3.0620117c0.0279999-2.0270996-1.3619995-3.2651367-3.098999-3.2619629
	C52.5827942,70.1647949,51.2907867,71.4848633,51.2937927,73.3068848 M54.3807983,67.7006836
	c1.3419952-0.0039062,2.5529938,0.3720703,3.6289978,1.1601562c1.1719971,0.8598633,1.8450012,2.0268555,2.0839996,3.4589844
	c0.2029877,1.2138672,0.0769958,2.3830566-0.4500122,3.4938965c-0.7049866,1.4851074-1.8799896,2.453125-3.4539948,2.8671875
	c-2.4259949,0.638916-4.6100006,0.190918-6.352005-1.7111816c-0.7459869-0.8149414-1.1129913-1.8269043-1.2389984-2.9379883
	c-0.1279907-1.1279297,0.0180054-2.2019043,0.5110016-3.2158203c0.7850037-1.6171875,2.1150055-2.559082,3.8430023-2.947998
	C53.4177856,67.7626953,53.9037933,67.7539062,54.3807983,67.7006836"/>
<path class="st6" d="M109.269104,35.8830566c0-0.7797852,0-1.5268555,0-2.2729492
	c0-1.1318359-0.006012-2.263916,0.0029907-3.3959961c0.0119934-1.5100098,0.0359802-3.0200195,0.0559998-4.5300293
	c0.0180054-1.348877,0.0339966-2.697998,0.0589905-4.0458984c0.0079956-0.4331055,0.0390015-0.8659668,0.0599976-1.3029785
	c1.6090088-0.0439453,3.2010193-0.230957,4.7929993-0.6279297v0.2958984c0,0.8759766,0.006012,1.7509766-0.0010071,2.6269531
	c-0.0149841,1.7670898-0.0359802,3.5339355-0.0569763,5.3010254c-0.0169983,1.4731445-0.0350037,2.9440918-0.0570068,4.4169922
	c-0.0079956,0.5200195-0.0240173,1.0400391-0.0480042,1.559082c-0.0029907,0.0678711-0.0620117,0.1618652-0.1220093,0.1938477
	c-1.4499817,0.7751465-2.9679871,1.3740234-4.5650024,1.7722168
	C109.3470764,35.8830566,109.3000793,35.8811035,109.269104,35.8830566"/>
<path class="st7" d="M35.760498,2.7600098c-0.0210114,0.3342285-0.0550079,0.6540527-0.0580139,0.9731445
	c-0.0099945,1.0949707-0.0029907,2.1889648-0.0130005,3.2839355c-0.0139923,1.7009277-0.0359955,3.4020996-0.0559998,5.1030273
	c-0.0179901,1.5109863-0.0399933,3.0219727-0.0569916,4.532959c-0.0059967,0.5300293-0.0010071,1.0600586-0.0010071,1.6101074
	c-1.673996,0.079834-3.2749939,0.2290039-4.8669891,0.6430664c0.0089874-0.1811523,0.0209961-0.3261719,0.0209961-0.4711914
	c0.0050049-1.322998,0.0009918-2.6450195,0.0110016-3.9680176c0.0119934-1.4929199,0.0339966-2.9858398,0.052002-4.4780273
	c0.0189972-1.5019531,0.0369873-3.0039062,0.0599976-4.5048828c0.0039978-0.2648926,0.026001-0.5300293,0.0540009-0.7939453
	c0.0059967-0.0620117,0.0579987-0.1430664,0.1119995-0.1721191c1.4599915-0.7800293,2.9940033-1.3688965,4.5979919-1.7729492
	C35.6424866,2.7390137,35.6724854,2.7502441,35.760498,2.7600098"/>
<path d="M91.700592,73.972168c-0.7409973,0-1.4249878-0.0500488-2.098999,0.0170898
	c-0.5209961,0.0510254-1.04599,0.2019043-1.5350037,0.3959961c-0.5029907,0.2009277-0.8719788,0.579834-0.84198,1.1889648
	c0.0289917,0.5749512,0.3769836,0.9250488,0.8809814,1.1259766c0.802002,0.3188477,1.6020203,0.2438965,2.3760071-0.0959473
	c0.6380005-0.2800293,1.0339966-0.7770996,1.1359863-1.4711914C91.6745911,74.7441406,91.6755981,74.347168,91.700592,73.972168
	 M94.285614,78.644043h-2.4290161v-1.322998c-0.3120117,0.2880859-0.6090088,0.5820312-0.927002,0.8500977
	c-0.5189819,0.4350586-1.1380005,0.6191406-1.8009949,0.7180176c-0.7910156,0.1188965-1.5660095,0.0629883-2.3139954-0.1889648
	c-1.1380005-0.3850098-2.0050049-1.0791016-2.25-2.3200684c-0.2770081-1.4008789,0.2080078-2.822998,1.6889954-3.5649414
	c0.7489929-0.375,1.5419922-0.5900879,2.3710022-0.6699219c0.5539856-0.0529785,1.1099854-0.0810547,1.6659851-0.1162109
	c0.5079956-0.0319824,1.0169983-0.0568848,1.5270081-0.0859375c0.1700134-0.9619141-0.4289856-1.8320312-1.4909973-2.0688477
	c-1.3309937-0.2971191-2.5230103,0.0488281-3.5799866,0.8918457c-0.0429993,0.0339355-0.0750122,0.0839844-0.1100159,0.125
	c-0.4840088-0.4719238-0.9639893-0.9399414-1.4609985-1.4238281c0.4630127-0.5212402,1.0249939-0.8671875,1.6329956-1.1591797
	c1.2090149-0.5820312,2.4980164-0.6369629,3.7910156-0.5500488c0.9790039,0.0661621,1.9039917,0.3701172,2.6170044,1.1020508
	c0.6579895,0.6740723,1.0069885,1.5070801,1.0229797,2.4370117c0.0429993,2.4240723,0.0460205,4.8481445,0.0639954,7.2719727
	C94.3035889,78.5871582,94.2955933,78.604248,94.285614,78.644043"/>
<path d="M44.1537018,70.3149414c0,1.4770508-0.0020142,2.9130859,0.0009918,4.3491211
	c0.0010071,0.4399414-0.0500031,0.8830566,0.1660004,1.3029785c0.1950073,0.3779297,0.4989929,0.5979004,0.9049988,0.6230469
	c0.6119995,0.0390625,1.2279968,0.0429688,1.8159943-0.3010254c0.0100098,0.1010742,0.0240021,0.1699219,0.0240021,0.2390137
	c0.0019989,0.5900879-0.0169983,1.1809082,0.0090027,1.7700195c0.0120087,0.2590332-0.098999,0.3620605-0.3130035,0.4060059
	c-0.4029999,0.0820312-0.8059998,0.2009277-1.2129974,0.2229004c-0.894989,0.0471191-1.7929993,0.0480957-2.6409912-0.3278809
	c-0.8430023-0.3730469-1.227005-1.0810547-1.3730011-1.9360352c-0.0810089-0.4719238-0.1130066-0.9560547-0.1180115-1.4360352
	c-0.0139923-1.5219727-0.0049896-3.0449219-0.0049896-4.5668945v-0.3352051h-2.1640015v-2.3498535h2.1600037v-3.0869141h0.5820007
	c0.6089935,0,1.2179871,0.0119629,1.8269958-0.005127c0.2579956-0.0070801,0.3479919,0.0600586,0.3430023,0.3330078
	c-0.0160065,0.9030762-0.0059967,1.8068848-0.0059967,2.7409668h2.9129944v0.8740234
	c0,0.4089355-0.0090027,0.8190918,0.0039978,1.2270508c0.0059967,0.2009277-0.0610046,0.263916-0.2610016,0.2609863
	c-0.7709961-0.0100098-1.5419922-0.0041504-2.3130035-0.0041504H44.1537018z"/>
<path class="st6" d="M119.6636047,17.4643555c0,0.6330566,0.0069885,1.2480469-0.0020142,1.8630371
	c-0.0100098,0.6931152-0.0410156,1.3850098-0.0499878,2.078125c-0.0090027,0.7609863,0.0039978,1.5219727-0.0030212,2.2819824
	c-0.0149841,1.348877-0.0350037,2.697998-0.0570068,4.046875c-0.0089722,0.5480957-0.0079956,1.097168-0.0569763,1.6430664
	c-0.0150146,0.1621094-0.1679993,0.3249512-0.2870178,0.4631348c-0.8809814,1.0187988-1.8519897,1.9448242-2.927002,2.7578125
	c-0.0149841,0.0109863-0.0350037,0.012207-0.0759888,0.0251465c-0.0150146-0.059082-0.0419922-0.1159668-0.0419922-0.1740723
	c0.0039978-0.4350586,0.0139771-0.869873,0.0189819-1.3059082c0.0200195-1.6159668,0.0410156-3.2321777,0.0570068-4.8481445
	c0.019989-2.0720215,0.0329895-4.144043,0.053009-6.2158203c0.0029907-0.3010254,0.019989-0.6030273,0.0489807-0.9030762
	c0.0050049-0.0620117,0.0780029-0.1469727,0.1390076-0.1699219c1.0760193-0.4072266,2.0970154-0.9240723,3.072998-1.5310059
	C119.5665894,17.4675293,119.5895996,17.4714355,119.6636047,17.4643555"/>
<path class="st8" d="M28.7326965,6.0107422c0,0.9770508,0,1.9421387,0,2.9082031
	c0,0.9890137,0.0049896,1.9790039-0.003006,2.9680176c-0.0149994,1.9108887-0.0350037,3.8208008-0.0590057,5.730957
	c-0.0069885,0.5959473-0.0309906,1.1928711-0.0569916,1.7878418c-0.003006,0.064209-0.0620117,0.1611328-0.1180115,0.1831055
	c-1.0829926,0.4179688-2.1149902,0.9360352-3.0999908,1.5500488c-0.0130005,0.0090332-0.0359955,0.0029297-0.0789948,0.0058594
	c-0.0050049-0.0698242-0.0120087-0.1398926-0.0120087-0.2099609c0-0.6950684-0.0039978-1.3898926,0.0019989-2.0839844
	c0.0160065-1.5478516,0.0359955-3.0969238,0.0559998-4.6450195c0.0180054-1.348877,0.0350037-2.6989746,0.0590057-4.0478516
	c0.0059967-0.3200684,0.0139923-0.644043,0.0650024-0.9589844c0.0209961-0.1311035,0.1499939-0.2490234,0.2429962-0.3620605
	c0.8730011-1.059082,1.8730011-1.9851074,2.9599915-2.8190918C28.7026825,6.0087891,28.7256927,6.0119629,28.7326965,6.0107422"/>
<path d="M79.2825012,78.6462402h-2.6710205v-10.657959h2.6610107v1.6601562
	c0.9750061-1.6811523,2.3890076-2.1569824,4.1669922-1.7961426v2.6359863
	c-0.2569885-0.0419922-0.5010071-0.0839844-0.7460022-0.1240234c-0.9339905-0.152832-1.8119812-0.0319824-2.5369873,0.6230469
	c-0.4660034,0.420166-0.7870178,0.9731445-0.8040161,1.5991211c-0.0529785,1.888916-0.0509949,3.7800293-0.0699768,5.6699219
	C79.2814941,78.378418,79.2825012,78.5002441,79.2825012,78.6462402"/>
<path class="st6" d="M121.1520081,27.1218262c0-0.6159668-0.007019-1.1618652,0.0019836-1.7077637
	c0.0109863-0.7111816,0.0429993-1.4230957,0.0499878-2.1340332c0.0090027-0.7700195-0.0079956-1.5410156,0-2.3110352
	c0.0150146-1.4240723,0.0470276-2.847168,0.0559998-4.2719727c0.0020142-0.3010254,0.0660095-0.5080566,0.3160095-0.7241211
	c0.5589905-0.4848633,1.0620117-1.032959,1.5880127-1.5568848c0.0390015-0.0390625,0.0690002-0.0871582,0.1619873-0.1130371
	c0,0.4289551,0,0.8588867,0,1.2880859c-0.0010071,0.6848145,0.0020142,1.369873-0.0050049,2.0549316
	c-0.0159912,1.5549316-0.0429993,3.1098633-0.0529785,4.6650391c-0.0050049,0.730957-0.3010254,1.3718262-0.6080017,2.0009766
	c-0.434021,0.8869629-0.9140015,1.7519531-1.3760071,2.625C121.2609863,26.9819336,121.2250061,27.0209961,121.1520081,27.1218262"
	/>
<path class="st8" d="M21.6217041,24.3391113c0.0109863-0.1818848,0.0249939-0.3208008,0.0259857-0.4589844
	c0.0020142-1.2658691-0.0049896-2.5319824,0.0040131-3.7978516c0.0109863-1.3969727,0.026001-2.7929688,0.0639954-4.1889648
	c0.0070038-0.2421875,0.1150055-0.4951172,0.223999-0.7189941c0.5590057-1.1481934,1.1329956-2.2890625,1.7039948-3.4301758
	c0.0270081-0.0549316,0.0720062-0.0998535,0.1750031-0.1408691c0,0.2299805,0.0050049,0.4599609-0.0009918,0.6899414
	c-0.0160065,0.6049805-0.0460052,1.2099609-0.053009,1.815918c-0.0099945,0.8181152,0.003006,1.637207-0.0050049,2.4550781
	c-0.0149994,1.5671387-0.0349884,3.1340332-0.0589905,4.7009277c-0.0050049,0.3400879-0.0310059,0.6791992-0.0559998,1.0180664
	c-0.0050049,0.0671387-0.0350037,0.1489258-0.0820007,0.1940918c-0.6150055,0.6049805-1.2350006,1.2038574-1.8540039,1.8039551
	C21.6916962,24.2971191,21.6687012,24.3083496,21.6217041,24.3391113"/>
<path class="st6" d="M125.4313049,11.1230469c0.1169739,2.1760254-0.6010132,6.8232422-0.9110107,7.4841309
	c0-0.9929199-0.0010071-2.0600586,0-3.1259766c0-0.8649902-0.0050049-1.7299805,0.0069885-2.5949707
	c0.0020142-0.1401367,0.0540161-0.2919922,0.1230164-0.4169922
	C124.8952942,12.0270996,125.1562805,11.5932617,125.4313049,11.1230469"/>
<path class="st8" d="M20.4488983,19.9553223v4.0571289v0.3139648c0,1.6921387,0,1.6921387-0.8730011,3.1201172
	c-0.0070038,0.0119629-0.0320129,0.0119629-0.0490112,0.0178223C19.3158875,26.7265625,20.0828857,20.6054688,20.4488983,19.9553223
	"/>
</svg>
