<svg width="21" height="21" viewBox="0 0 21 21" fill="none" xmlns="http://www.w3.org/2000/svg">
<mask id="mask0_4342_10856" style="mask-type:alpha" maskUnits="userSpaceOnUse" x="0" y="4" width="21" height="13">
<path fill-rule="evenodd" clip-rule="evenodd" d="M9.61625 7C9.61625 8.4525 8.4525 9.625 7 9.625C5.5475 9.625 4.375 8.4525 4.375 7C4.375 5.5475 5.5475 4.375 7 4.375C8.4525 4.375 9.61625 5.5475 9.61625 7ZM16.6163 7C16.6163 8.4525 15.4525 9.625 14 9.625C12.5475 9.625 11.375 8.4525 11.375 7C11.375 5.5475 12.5475 4.375 14 4.375C15.4525 4.375 16.6163 5.5475 16.6163 7ZM7 11.375C4.96125 11.375 0.875 12.3988 0.875 14.4375V15.75C0.875 16.2312 1.26875 16.625 1.75 16.625H12.25C12.7312 16.625 13.125 16.2312 13.125 15.75V14.4375C13.125 12.3988 9.03875 11.375 7 11.375ZM13.1512 11.4187C13.4575 11.3925 13.7463 11.375 14 11.375C16.0387 11.375 20.125 12.3988 20.125 14.4375V15.75C20.125 16.2312 19.7313 16.625 19.25 16.625H14.7175C14.8138 16.3538 14.875 16.0562 14.875 15.75V14.4375C14.875 13.1512 14.1838 12.18 13.1862 11.4538C13.1836 11.4511 13.181 11.4476 13.1781 11.4439C13.1714 11.4352 13.1635 11.4249 13.1512 11.4187Z" fill="black"/>
</mask>
<g mask="url(#mask0_4342_10856)">
<rect width="21" height="21" fill="#6F6F6E"/>
</g>
</svg>
