<svg width="21" height="21" viewBox="0 0 21 21" fill="none" xmlns="http://www.w3.org/2000/svg">
<mask id="mask0_4342_10837" style="mask-type:alpha" maskUnits="userSpaceOnUse" x="2" y="3" width="17" height="15">
<path d="M8.74734 16.912V12.537H12.2473V16.912C12.2473 17.3932 12.6411 17.787 13.1223 17.787H15.7473C16.2286 17.787 16.6223 17.3932 16.6223 16.912V10.787H18.1098C18.5123 10.787 18.7048 10.2882 18.3986 10.0257L11.0836 3.43699C10.7511 3.13949 10.2436 3.13949 9.91109 3.43699L2.59609 10.0257C2.29859 10.2882 2.48234 10.787 2.88484 10.787H4.37234V16.912C4.37234 17.3932 4.76609 17.787 5.24734 17.787H7.87234C8.35359 17.787 8.74734 17.3932 8.74734 16.912Z" fill="black"/>
</mask>
<g mask="url(#mask0_4342_10837)">
<rect width="21" height="21" fill="#6F6F6E"/>
</g>
</svg>
