<svg width="21" height="21" viewBox="0 0 21 21" fill="none" xmlns="http://www.w3.org/2000/svg">
<mask id="mask0_4342_10911" style="mask-type:alpha" maskUnits="userSpaceOnUse" x="0" y="3" width="21" height="15">
<path fill-rule="evenodd" clip-rule="evenodd" d="M13.125 10.5C15.0588 10.5 16.625 8.93375 16.625 7C16.625 5.06625 15.0588 3.5 13.125 3.5C11.1912 3.5 9.625 5.06625 9.625 7C9.625 8.93375 11.1912 10.5 13.125 10.5ZM5.25 8.75V7C5.25 6.51875 4.85625 6.125 4.375 6.125C3.89375 6.125 3.5 6.51875 3.5 7V8.75H1.75C1.26875 8.75 0.875 9.14375 0.875 9.625C0.875 10.1062 1.26875 10.5 1.75 10.5H3.5V12.25C3.5 12.7312 3.89375 13.125 4.375 13.125C4.85625 13.125 5.25 12.7312 5.25 12.25V10.5H7C7.48125 10.5 7.875 10.1062 7.875 9.625C7.875 9.14375 7.48125 8.75 7 8.75H5.25ZM6.125 15.75C6.125 13.4225 10.7887 12.25 13.125 12.25C15.4613 12.25 20.125 13.4225 20.125 15.75V16.625C20.125 17.1062 19.7313 17.5 19.25 17.5H7C6.51875 17.5 6.125 17.1062 6.125 16.625V15.75Z" fill="black"/>
</mask>
<g mask="url(#mask0_4342_10911)">
<rect width="21" height="21" fill="#6F6F6E"/>
</g>
</svg>
