<svg width="21" height="21" viewBox="0 0 21 21" fill="none" xmlns="http://www.w3.org/2000/svg">
<mask id="mask0_4342_10847" style="mask-type:alpha" maskUnits="userSpaceOnUse" x="3" y="3" width="15" height="15">
<path fill-rule="evenodd" clip-rule="evenodd" d="M14 7C14 8.93375 12.4338 10.5 10.5 10.5C8.56625 10.5 7 8.93375 7 7C7 5.06625 8.56625 3.5 10.5 3.5C12.4338 3.5 14 5.06625 14 7ZM3.5 15.75C3.5 13.4225 8.16375 12.25 10.5 12.25C12.8363 12.25 17.5 13.4225 17.5 15.75V16.625C17.5 17.1062 17.1062 17.5 16.625 17.5H4.375C3.89375 17.5 3.5 17.1062 3.5 16.625V15.75Z" fill="black"/>
</mask>
<g mask="url(#mask0_4342_10847)">
<rect width="21" height="21" fill="#6F6F6E"/>
</g>
</svg>
