<svg width="21" height="21" viewBox="0 0 21 21" fill="none" xmlns="http://www.w3.org/2000/svg">
<mask id="mask0_4342_10876" style="mask-type:alpha" maskUnits="userSpaceOnUse" x="1" y="1" width="19" height="19">
<path fill-rule="evenodd" clip-rule="evenodd" d="M14.525 2.92905C16.3625 3.1653 17.8237 4.6178 18.0513 6.4553C18.0863 6.7528 18.3312 6.9803 18.6287 6.9803C18.97 6.9803 19.25 6.6828 19.2062 6.34155C18.9175 3.96155 17.0187 2.0628 14.6388 1.77405C14.2975 1.7303 14 2.0103 14 2.35155C14 2.64905 14.2275 2.89405 14.525 2.92905ZM10.5 9.6053C9.56218 9.6053 8.69559 10.1056 8.22668 10.9178C7.75777 11.73 7.75777 12.7306 8.22668 13.5428C8.69559 14.355 9.56218 14.8553 10.5 14.8553C11.4378 14.8553 12.3044 14.355 12.7733 13.5428C13.2422 12.7306 13.2422 11.73 12.7733 10.9178C12.3044 10.1056 11.4378 9.6053 10.5 9.6053ZM14.7087 4.15405C15.7503 4.41682 16.5635 5.23005 16.8263 6.27155C16.9138 6.6303 16.6337 6.9803 16.2575 6.9803C15.995 6.9803 15.7587 6.81405 15.6975 6.5603C15.5487 5.9303 15.05 5.4403 14.42 5.2828C14.1663 5.22155 14 4.97655 14 4.7228C14 4.34655 14.35 4.06655 14.7087 4.15405ZM14.875 7.8553C14.875 6.8928 14.0875 6.1053 13.125 6.1053V4.3553C13.125 3.87405 12.7312 3.4803 12.25 3.4803H8.645C8.155 3.4803 7.6825 3.6903 7.35 4.04905L6.27375 5.2303H3.5C2.5375 5.2303 1.75 6.0178 1.75 6.9803V17.4803C1.75 18.4428 2.5375 19.2303 3.5 19.2303H17.5C18.4625 19.2303 19.25 18.4428 19.25 17.4803V9.6053C19.25 8.6428 18.4625 7.8553 17.5 7.8553H14.875ZM6.125 12.2303C6.125 14.6453 8.085 16.6053 10.5 16.6053C12.915 16.6053 14.875 14.6453 14.875 12.2303C14.875 9.8153 12.915 7.8553 10.5 7.8553C8.085 7.8553 6.125 9.8153 6.125 12.2303Z" fill="black"/>
</mask>
<g mask="url(#mask0_4342_10876)">
<rect width="21" height="21" fill="#6F6F6E"/>
</g>
</svg>
