<svg width="21" height="21" viewBox="0 0 21 21" fill="none" xmlns="http://www.w3.org/2000/svg">
<mask id="mask0_4342_10891" style="mask-type:alpha" maskUnits="userSpaceOnUse" x="1" y="1" width="19" height="19">
<path fill-rule="evenodd" clip-rule="evenodd" d="M3.5 1.75H17.5C18.4625 1.75 19.25 2.5375 19.25 3.5V17.5C19.25 18.4625 18.4625 19.25 17.5 19.25H3.5C2.5375 19.25 1.75 18.4625 1.75 17.5V3.5C1.75 2.5375 2.5375 1.75 3.5 1.75ZM4.375 17.5H7V14H3.5V16.625C3.5 17.1062 3.89375 17.5 4.375 17.5ZM7 12.25H3.5V8.75H7V12.25ZM3.5 7H7V3.5H4.375C3.89375 3.5 3.5 3.89375 3.5 4.375V7ZM12.25 17.5H8.75V14H12.25V17.5ZM8.75 12.25H12.25V8.75H8.75V12.25ZM12.25 7H8.75V3.5H12.25V7ZM14 17.5H16.625C17.1062 17.5 17.5 17.1062 17.5 16.625V14H14V17.5ZM17.5 12.25H14V8.75H17.5V12.25ZM14 7H17.5V4.375C17.5 3.89375 17.1062 3.5 16.625 3.5H14V7Z" fill="black"/>
</mask>
<g mask="url(#mask0_4342_10891)">
<rect width="21" height="21" fill="#6F6F6E"/>
</g>
</svg>
