<svg width="21" height="21" viewBox="0 0 21 21" fill="none" xmlns="http://www.w3.org/2000/svg">
<mask id="mask0_4342_10921" style="mask-type:alpha" maskUnits="userSpaceOnUse" x="3" y="4" width="15" height="13">
<path fill-rule="evenodd" clip-rule="evenodd" d="M3.9375 7.875H5.6875C6.16875 7.875 6.5625 7.48125 6.5625 7V5.25C6.5625 4.76875 6.16875 4.375 5.6875 4.375H3.9375C3.45625 4.375 3.0625 4.76875 3.0625 5.25V7C3.0625 7.48125 3.45625 7.875 3.9375 7.875ZM5.6875 12.25H3.9375C3.45625 12.25 3.0625 11.8562 3.0625 11.375V9.625C3.0625 9.14375 3.45625 8.75 3.9375 8.75H5.6875C6.16875 8.75 6.5625 9.14375 6.5625 9.625V11.375C6.5625 11.8562 6.16875 12.25 5.6875 12.25ZM5.6875 16.625H3.9375C3.45625 16.625 3.0625 16.2312 3.0625 15.75V14C3.0625 13.5188 3.45625 13.125 3.9375 13.125H5.6875C6.16875 13.125 6.5625 13.5188 6.5625 14V15.75C6.5625 16.2312 6.16875 16.625 5.6875 16.625ZM17.0625 12.25H8.3125C7.83125 12.25 7.4375 11.8562 7.4375 11.375V9.625C7.4375 9.14375 7.83125 8.75 8.3125 8.75H17.0625C17.5437 8.75 17.9375 9.14375 17.9375 9.625V11.375C17.9375 11.8562 17.5437 12.25 17.0625 12.25ZM8.3125 16.625H17.0625C17.5437 16.625 17.9375 16.2312 17.9375 15.75V14C17.9375 13.5188 17.5437 13.125 17.0625 13.125H8.3125C7.83125 13.125 7.4375 13.5188 7.4375 14V15.75C7.4375 16.2312 7.83125 16.625 8.3125 16.625ZM7.4375 7V5.25C7.4375 4.76875 7.83125 4.375 8.3125 4.375H17.0625C17.5437 4.375 17.9375 4.76875 17.9375 5.25V7C17.9375 7.48125 17.5437 7.875 17.0625 7.875H8.3125C7.83125 7.875 7.4375 7.48125 7.4375 7Z" fill="black"/>
</mask>
<g mask="url(#mask0_4342_10921)">
<rect width="21" height="21" fill="#6F6F6E"/>
</g>
</svg>
