<svg width="21" height="21" viewBox="0 0 21 21" fill="none" xmlns="http://www.w3.org/2000/svg">
<mask id="mask0_4342_10867" style="mask-type:alpha" maskUnits="userSpaceOnUse" x="1" y="2" width="19" height="17">
<path fill-rule="evenodd" clip-rule="evenodd" d="M1.80633 7.10219L9.18258 3.07719C9.70758 2.79719 10.3376 2.79719 10.8626 3.07719L19.1926 7.61844C19.4726 7.77594 19.6476 8.06469 19.6476 8.38844V13.9972C19.6476 14.4784 19.2538 14.8722 18.7726 14.8722C18.2913 14.8722 17.8976 14.4784 17.8976 13.9972V8.82594L10.8626 12.6672C10.3376 12.9559 9.70758 12.9559 9.18258 12.6672L1.80633 8.64219C1.20258 8.30969 1.20258 7.43469 1.80633 7.10219ZM3.89758 13.9884V11.5297L9.18258 14.4172C9.70758 14.7059 10.3376 14.7059 10.8626 14.4172L16.1476 11.5297V13.9884C16.1476 14.6272 15.7976 15.2222 15.2376 15.5284L10.8626 17.9172C10.3376 18.2059 9.70758 18.2059 9.18258 17.9172L4.80758 15.5284C4.24758 15.2222 3.89758 14.6272 3.89758 13.9884Z" fill="black"/>
</mask>
<g mask="url(#mask0_4342_10867)">
<rect width="21" height="21" fill="#6F6F6E"/>
</g>
</svg>
