<svg width="20" height="20" viewBox="0 0 20 20" fill="none" xmlns="http://www.w3.org/2000/svg">
<g clip-path="url(#clip0_4146_15634)">
<rect width="20" height="20" rx="10" fill="#FEEFEF"/>
<mask id="mask0_4146_15634" style="mask-type:alpha" maskUnits="userSpaceOnUse" x="4" y="4" width="12" height="12">
<path d="M15.2496 4.75842C15.0939 4.60238 14.8825 4.51468 14.6621 4.51468C14.4417 4.51468 14.2303 4.60238 14.0746 4.75842L9.99961 8.82509L5.92461 4.75009C5.76892 4.59404 5.55754 4.50635 5.33711 4.50635C5.11668 4.50635 4.9053 4.59404 4.74961 4.75009C4.42461 5.07509 4.42461 5.60009 4.74961 5.92509L8.82461 10.0001L4.74961 14.0751C4.42461 14.4001 4.42461 14.9251 4.74961 15.2501C5.07461 15.5751 5.59961 15.5751 5.92461 15.2501L9.99961 11.1751L14.0746 15.2501C14.3996 15.5751 14.9246 15.5751 15.2496 15.2501C15.5746 14.9251 15.5746 14.4001 15.2496 14.0751L11.1746 10.0001L15.2496 5.92509C15.5663 5.60842 15.5663 5.07509 15.2496 4.75842Z" fill="black"/>
</mask>
<g mask="url(#mask0_4146_15634)">
<rect width="20" height="20" fill="#DA1414"/>
</g>
</g>
<defs>
<clipPath id="clip0_4146_15634">
<rect width="20" height="20" rx="10" fill="white"/>
</clipPath>
</defs>
</svg>
