<svg width="20" height="20" viewBox="0 0 20 20" fill="none" xmlns="http://www.w3.org/2000/svg">
<g clip-path="url(#clip0_4146_15629)">
<rect width="20" height="20" rx="10" fill="#005890"/>
<mask id="mask0_4146_15629" style="mask-type:alpha" maskUnits="userSpaceOnUse" x="1" y="1" width="18" height="18">
<path fill-rule="evenodd" clip-rule="evenodd" d="M10.0003 1.6665C5.40033 1.6665 1.66699 5.39984 1.66699 9.99984C1.66699 14.5998 5.40033 18.3332 10.0003 18.3332C14.6003 18.3332 18.3337 14.5998 18.3337 9.99984C18.3337 5.39984 14.6003 1.6665 10.0003 1.6665ZM10.0003 14.1665C9.54199 14.1665 9.16699 13.7915 9.16699 13.3332V9.99984C9.16699 9.5415 9.54199 9.1665 10.0003 9.1665C10.4587 9.1665 10.8337 9.5415 10.8337 9.99984V13.3332C10.8337 13.7915 10.4587 14.1665 10.0003 14.1665ZM9.16699 7.49984H10.8337V5.83317H9.16699V7.49984Z" fill="black"/>
</mask>
<g mask="url(#mask0_4146_15629)">
<rect width="20" height="20" fill="#EEF2FA"/>
</g>
</g>
<defs>
<clipPath id="clip0_4146_15629">
<rect width="20" height="20" rx="10" fill="white"/>
</clipPath>
</defs>
</svg>
