<svg width="24" height="25" viewBox="0 0 24 25" fill="none" xmlns="http://www.w3.org/2000/svg">
<g id="Navigation / more vert">
<mask id="mask0_70_10431" style="mask-type:alpha" maskUnits="userSpaceOnUse" x="10" y="4" width="4" height="17">
<g id="Icon Mask">
<path id="Round" fill-rule="evenodd" clip-rule="evenodd" d="M12 8.26465C13.1 8.26465 14 7.36465 14 6.26465C14 5.16465 13.1 4.26465 12 4.26465C10.9 4.26465 10 5.16465 10 6.26465C10 7.36465 10.9 8.26465 12 8.26465ZM12 10.2646C10.9 10.2646 10 11.1646 10 12.2646C10 13.3646 10.9 14.2646 12 14.2646C13.1 14.2646 14 13.3646 14 12.2646C14 11.1646 13.1 10.2646 12 10.2646ZM10 18.2646C10 17.1646 10.9 16.2646 12 16.2646C13.1 16.2646 14 17.1646 14 18.2646C14 19.3646 13.1 20.2646 12 20.2646C10.9 20.2646 10 19.3646 10 18.2646Z" fill="black"/>
</g>
</mask>
<g mask="url(#mask0_70_10431)">
<rect id="Color Fill" y="0.264648" width="24" height="24" fill="#6F6F6E"/>
</g>
</g>
</svg>
