<svg width="47" height="32" viewBox="0 0 47 32" fill="none" xmlns="http://www.w3.org/2000/svg">
<path d="M4.29192 18.0078C4.49786 17.7643 4.74607 17.5059 5.04284 17.2503L5.0941 13.0293C4.78384 13.5563 4.53383 14.102 4.33238 14.644L4.29102 18.0078H4.29192Z" fill="#EE3124"/>
<path d="M3.50025 19.2515C3.50025 19.2515 3.59911 19.0108 3.82647 18.6554L3.85523 16.2832C3.47779 17.9483 3.50025 19.2524 3.50025 19.2524V19.2515Z" fill="#EE3124"/>
<path d="M5.74506 12.0813L5.6875 16.7697C6.04633 16.5328 6.45641 16.3145 6.92226 16.1335L6.98701 10.8379C6.51127 11.2101 6.10028 11.6308 5.74506 12.0813Z" fill="#EE3124"/>
<path d="M17.9724 9.08105L17.8555 18.6658C21.1694 19.8198 23.5859 20.8934 23.5859 20.8934L23.6461 11.1753C22.2396 10.5493 20.1541 9.78441 17.9724 9.08105Z" fill="#B5D334"/>
<path d="M14.0742 16.2608C15.193 16.5257 16.3099 16.8494 17.3522 17.1843L17.4359 10.3523C16.2578 10.0025 15.1075 9.70304 14.1561 9.51367L14.0742 16.2608Z" fill="#FFF200"/>
<path d="M7.72852 15.8855C8.2681 15.7483 8.86885 15.6625 9.53524 15.6467L9.60988 9.56836C8.9327 9.7428 8.33106 9.9928 7.79686 10.2997L7.72852 15.8845V15.8855Z" fill="#F99B1C"/>
<path d="M10.3121 8.59549L10.2168 16.3883C11.1791 16.462 12.1962 16.6131 13.2295 16.8174L13.3302 8.54698C13.2412 8.53765 13.1549 8.53019 13.073 8.5246C12.0676 8.4509 11.1512 8.48075 10.3121 8.59549Z" fill="#FDB913"/>
<path d="M29.1543 22.4746C30.6157 22.9093 32.0438 23.2815 33.2237 23.5166L33.3262 15.1426C31.9377 14.8133 30.5518 14.4122 29.2577 13.9971L29.1543 22.4755V22.4746Z" fill="#00B4DF"/>
<path d="M33.9883 22.7776C34.0602 22.786 34.1295 22.7916 34.196 22.7972C35.009 22.8569 35.7491 22.8317 36.4272 22.7393L36.5046 16.4428C35.7267 16.384 34.9047 16.2609 34.0701 16.0967L33.9883 22.7785V22.7776Z" fill="#0098BE"/>
<path d="M24.2012 19.8504C25.2093 20.2991 26.7022 20.8476 28.2661 21.3504L28.3497 14.4848C25.9764 13.6583 24.2443 12.8896 24.2443 12.8896L24.2012 19.8504Z" fill="#4CC0AD"/>
<path d="M41.9712 14.8562L41.9199 19.0791C42.2302 18.552 42.4793 18.0054 42.6807 17.4644L42.7221 14.1006C42.518 14.3441 42.2689 14.6034 41.9712 14.8562Z" fill="#053775"/>
<path d="M37.4062 22.5417C38.0825 22.3673 38.6842 22.1173 39.2184 21.8094L39.2876 16.2246C38.748 16.3617 38.1473 16.4485 37.4809 16.4625L37.4062 22.5408V22.5417Z" fill="#005B8E"/>
<path d="M43.5004 12.8643C43.5004 12.8643 43.4015 13.1049 43.1733 13.4603L43.1445 15.8334C43.522 14.1693 43.4995 12.8643 43.4995 12.8643H43.5004Z" fill="#053775"/>
<path d="M40.0165 21.2619C40.4923 20.8897 40.9041 20.469 41.2585 20.0185L41.316 15.3301C40.9572 15.567 40.5471 15.7853 40.0804 15.9663L40.0156 21.2619H40.0165Z" fill="#053775"/>
</svg>
