<svg width="47" height="34" viewBox="0 0 47 34" fill="none" xmlns="http://www.w3.org/2000/svg">
<g clip-path="url(#clip0_7230_25933)">
<path d="M0.939532 10.9439C1.18142 10.6642 1.47297 10.3674 1.82154 10.0738L1.88174 5.22461C1.51732 5.83009 1.22368 6.45699 0.987065 7.07961L0.938477 10.9439H0.939532Z" fill="#EE3124"/>
<path d="M0.000298869 12.365C0.000298869 12.365 0.116491 12.0886 0.383733 11.6803L0.417534 8.95508C-0.0261087 10.868 0.000298869 12.3661 0.000298869 12.3661V12.365Z" fill="#EE3124"/>
<path d="M2.63986 4.13748L2.57227 9.52354C2.99373 9.25134 3.47539 9.00057 4.02255 8.79268L4.09861 2.70898C3.53983 3.13657 3.0571 3.61987 2.63986 4.13748Z" fill="#EE3124"/>
<path d="M16.9864 0.689453L16.8491 11.7006C20.7417 13.0262 23.5799 14.2596 23.5799 14.2596L23.6506 3.09529C21.9986 2.37622 19.5491 1.49747 16.9864 0.689453Z" fill="#B5D334"/>
<path d="M12.4307 8.93867C13.7446 9.24302 15.0565 9.61487 16.2809 9.9996L16.3791 2.15091C14.9954 1.74904 13.6444 1.40505 12.5268 1.1875L12.4307 8.93867Z" fill="#FFF200"/>
<path d="M4.96924 8.49737C5.603 8.33985 6.30862 8.24125 7.09132 8.22304L7.179 1.24023C6.38361 1.44063 5.67695 1.72784 5.04952 2.0804L4.96924 8.49631V8.49737Z" fill="#F99B1C"/>
<path d="M7.99429 0.12765L7.88232 9.08013C9.01256 9.1648 10.2072 9.33839 11.4209 9.57309L11.5392 0.0719248C11.4346 0.0612084 11.3332 0.0526352 11.2371 0.0462054C10.0562 -0.0384542 8.97981 -0.00416169 7.99429 0.12765Z" fill="#FDB913"/>
<path d="M30.147 16.0731C31.8634 16.5724 33.5408 17 34.9267 17.2701L35.0471 7.64995C33.4161 7.27167 31.7884 6.81087 30.2684 6.33398L30.147 16.0742V16.0731Z" fill="#00B4DF"/>
<path d="M35.813 16.4173C35.8976 16.427 35.9789 16.4333 36.057 16.4398C37.012 16.5084 37.8813 16.4795 38.6777 16.3733L38.7685 9.13977C37.8548 9.07225 36.8894 8.9308 35.9092 8.74219L35.813 16.4184V16.4173Z" fill="#0098BE"/>
<path d="M24.3149 13.0552C25.4991 13.5706 27.2525 14.2008 29.0893 14.7783L29.1877 6.8911C26.4001 5.94163 24.3656 5.05859 24.3656 5.05859L24.3149 13.0552Z" fill="#4CC0AD"/>
<path d="M45.1797 7.31919L45.1196 12.1705C45.484 11.565 45.7765 10.9371 46.0132 10.3155L46.0618 6.45117C45.822 6.73087 45.5294 7.02878 45.1797 7.31919Z" fill="#053775"/>
<path d="M39.8223 16.1536C40.6166 15.9532 41.3233 15.666 41.9508 15.3125L42.0321 8.89648C41.3982 9.05402 40.6927 9.15368 39.91 9.16976L39.8223 16.1525V16.1536Z" fill="#005B8E"/>
<path d="M46.9998 5.0293C46.9998 5.0293 46.8836 5.30579 46.6153 5.71408L46.5815 8.44033C47.0251 6.52853 46.9987 5.0293 46.9987 5.0293H46.9998Z" fill="#053775"/>
<path d="M42.9025 14.6857C43.4611 14.2581 43.9449 13.7748 44.3611 13.2571L44.4288 7.87109C44.0073 8.14329 43.5256 8.39404 42.9774 8.60194L42.9014 14.6857H42.9025Z" fill="#053775"/>
<path d="M6.34766 19.3467C8.4097 19.3467 8.67279 20.8986 8.67279 20.8986H8.71287C9.14132 19.967 10.0796 19.0977 11.7108 19.0977C13.2191 19.0977 14.2589 19.6975 14.7688 20.9406C15.4816 19.6784 16.5214 19.0977 17.9908 19.0977C20.6003 19.0977 21.5199 20.9812 21.5199 23.3605V29.437C21.5199 29.437 19.072 29.6417 19.072 27.2217V23.6514C19.072 22.4098 18.705 21.3332 17.2568 21.3332C15.7272 21.3332 15.1558 22.6157 15.1558 23.8994V29.278H12.708V23.3618C12.708 22.1404 12.2181 21.3345 11.0355 21.3345C9.42571 21.3345 8.79306 22.5355 8.79306 23.8586V29.2794H6.34766V19.3492V19.3467Z" fill="#231F20"/>
<path d="M27.4559 21.2532C27.1865 21.1414 26.8859 21.0842 26.5476 21.0842C25.8949 21.0842 25.1195 21.3956 25.1195 22.139C25.1195 23.9185 30.4012 22.4695 30.4012 26.3409C30.4012 28.6973 28.1787 29.526 26.1806 29.526C24.671 29.526 23.3656 29.1332 22.3672 27.9957C22.3672 27.9957 23.4708 26.3015 24.9717 27.2954C25.3524 27.5268 25.7859 27.664 26.3234 27.664C27.0375 27.664 27.9557 27.3118 27.9557 26.5264C27.9557 24.4777 22.6741 26.0917 22.6741 22.3055C22.6741 20.0915 24.6322 19.0977 26.609 19.0977C27.9144 19.0977 29.3 19.512 30.0967 20.6089C30.0967 20.6089 28.9592 22.0208 27.4571 21.2532H27.4559Z" fill="#231F20"/>
<path d="M31.4043 19.3467C33.495 19.3467 33.7281 20.8364 33.7281 20.8364H33.7708C34.4835 19.6365 35.7701 19.0977 37.1343 19.0977C40.1535 19.0977 41.9676 21.3752 41.9676 24.3111C41.9676 27.2472 40.0308 29.526 37.2371 29.526C35.4019 29.526 34.4235 28.6566 33.9123 28.0148H33.8521V31.5289C33.8521 33.8396 31.4043 33.9934 31.4043 33.9934V19.3467ZM36.6446 21.3332C34.8506 21.3332 33.7708 22.7605 33.7708 24.3124C33.7708 25.8642 34.8519 27.2915 36.6446 27.2915C38.4373 27.2915 39.521 25.8642 39.521 24.3124C39.521 22.7605 38.4399 21.3332 36.6446 21.3332Z" fill="#231F20"/>
</g>
<defs>
<clipPath id="clip0_7230_25933">
<rect width="47" height="34" fill="white"/>
</clipPath>
</defs>
</svg>
