<?xml version="1.0" encoding="UTF-8"?>
<svg xmlns="http://www.w3.org/2000/svg" version="1.1" viewBox="0 0 588.06 379.15">
  <defs>
    <style>
      .cls-1 {
        fill: #4cc0ad;
      }

      .cls-2 {
        fill: #005b8e;
      }

      .cls-3 {
        fill: #231f20;
      }

      .cls-4 {
        fill: #f99b1c;
      }

      .cls-5 {
        fill: #053775;
      }

      .cls-6 {
        fill: #0098be;
      }

      .cls-7 {
        fill: #00b4df;
      }

      .cls-8 {
        fill: #b5d334;
      }

      .cls-9 {
        fill: #fdb913;
      }

      .cls-10 {
        fill: #ee3124;
      }

      .cls-11 {
        fill: #fff200;
      }
    </style>
  </defs>
  <!-- Generator: Adobe Illustrator 28.7.0, SVG Export Plug-In . SVG Version: 1.2.0 Build 136)  -->
  <g>
    <g id="Layer_1">
      <path class="cls-10" d="M106.39,113.92c2.29-2.61,5.05-5.38,8.35-8.12l.57-45.25c-3.45,5.65-6.23,11.5-8.47,17.31l-.46,36.06Z"/>
      <path class="cls-10" d="M97.5,127.19s1.1-2.58,3.63-6.39l.32-25.43c-4.2,17.85-3.95,31.83-3.95,31.83Z"/>
      <path class="cls-10" d="M122.49,50.4l-.64,50.26c3.99-2.54,8.55-4.88,13.73-6.82l.72-56.77c-5.29,3.99-9.86,8.5-13.81,13.33Z"/>
      <path class="cls-8" d="M258.31,18.24l-1.3,102.75c36.85,12.37,63.72,23.88,63.72,23.88l.67-104.18c-15.64-6.71-38.83-14.91-63.09-22.45Z"/>
      <path class="cls-11" d="M215.18,95.21c12.44,2.84,24.86,6.31,36.45,9.9l.93-73.24c-13.1-3.75-25.89-6.96-36.47-8.99l-.91,72.33Z"/>
      <path class="cls-4" d="M144.54,91.09c6-1.47,12.68-2.39,20.09-2.56l.83-65.16c-7.53,1.87-14.22,4.55-20.16,7.84l-.76,59.87Z"/>
      <path class="cls-9" d="M173.18,12.99l-1.06,83.54c10.7.79,22.01,2.41,33.5,4.6l1.12-88.66c-.99-.1-1.95-.18-2.86-.24-11.18-.79-21.37-.47-30.7.76Z"/>
      <path class="cls-7" d="M382.9,161.78c16.25,4.66,32.13,8.65,45.25,11.17l1.14-89.77c-15.44-3.53-30.85-7.83-45.24-12.28l-1.15,90.89Z"/>
      <path class="cls-6" d="M436.54,164.99c.8.09,1.57.15,2.31.21,9.04.64,17.27.37,24.81-.62l.86-67.5c-8.65-.63-17.79-1.95-27.07-3.71l-.91,71.63Z"/>
      <path class="cls-1" d="M327.69,133.63c11.21,4.81,27.81,10.69,45.2,16.08l.93-73.6c-26.39-8.86-45.65-17.1-45.65-17.1l-.48,74.62Z"/>
      <path class="cls-5" d="M525.22,80.1l-.57,45.27c3.45-5.65,6.22-11.51,8.46-17.31l.46-36.06c-2.27,2.61-5.04,5.39-8.35,8.1Z"/>
      <path class="cls-2" d="M474.5,162.54c7.52-1.87,14.21-4.55,20.15-7.85l.77-59.87c-6,1.47-12.68,2.4-20.09,2.55l-.83,65.16Z"/>
      <path class="cls-5" d="M542.45,58.73s-1.1,2.58-3.64,6.39l-.32,25.44c4.2-17.84,3.95-31.83,3.95-31.83Z"/>
      <path class="cls-5" d="M503.66,148.84c5.29-3.99,9.87-8.5,13.81-13.33l.64-50.26c-3.99,2.54-8.55,4.88-13.74,6.82l-.72,56.77Z"/>
      <g>
        <path class="cls-3" d="M15.42,175.54c16.46,0,18.56,12.21,18.56,12.21h.32c3.42-7.33,10.91-14.17,23.93-14.17,12.04,0,20.34,4.72,24.41,14.5,5.69-9.93,13.99-14.5,25.72-14.5,20.83,0,28.17,14.82,28.17,33.54v47.81s-19.54,1.61-19.54-17.43v-28.09c0-9.77-2.93-18.24-14.49-18.24-12.21,0-16.77,10.09-16.77,20.19v42.32h-19.54v-46.55c0-9.61-3.91-15.95-13.35-15.95-12.85,0-17.9,9.45-17.9,19.86v42.65H15.42v-78.13Z"/>
        <path class="cls-3" d="M183.91,190.54c-2.15-.88-4.55-1.33-7.25-1.33-5.21,0-11.4,2.45-11.4,8.3,0,14,42.16,2.6,42.16,33.06,0,18.54-17.74,25.06-33.69,25.06-12.05,0-22.47-3.09-30.44-12.04,0,0,8.81-13.33,20.79-5.51,3.04,1.82,6.5,2.9,10.79,2.9,5.7,0,13.03-2.77,13.03-8.95,0-16.12-42.16-3.42-42.16-33.21,0-17.42,15.63-25.24,31.41-25.24,10.42,0,21.48,3.26,27.84,11.89,0,0-9.08,11.11-21.07,5.07Z"/>
        <path class="cls-3" d="M215.43,175.54c16.69,0,18.55,11.72,18.55,11.72h.34c5.69-9.44,15.96-13.68,26.85-13.68,24.1,0,38.58,17.92,38.58,41.02s-15.46,41.03-37.76,41.03c-14.65,0-22.46-6.84-26.54-11.89h-.48v27.65c0,18.18-19.54,19.39-19.54,19.39v-115.24ZM257.26,191.17c-14.32,0-22.94,11.23-22.94,23.44s8.63,23.44,22.94,23.44,22.96-11.23,22.96-23.44-8.63-23.44-22.96-23.44Z"/>
      </g>
      <g>
        <path class="cls-3" d="M15.82,297.65h10.62v6.71h.19c3.26-5.41,9.13-7.83,15.36-7.83,13.79,0,22.07,10.24,22.07,23.47s-8.85,23.47-21.6,23.47c-8.38,0-12.86-3.91-15.18-6.8h-.28v26.91h-11.17v-65.94ZM39.75,306.59c-8.2,0-13.13,6.43-13.13,13.41s4.93,13.41,13.13,13.41,13.13-6.42,13.13-13.41-4.94-13.41-13.13-13.41Z"/>
        <path class="cls-3" d="M86.4,303.89h.19c1.78-3.73,6.24-7.36,13.13-7.36,12.03,0,16.31,8.47,16.31,17.6v28.22h-11.18v-22.63c0-4.95-.37-13.13-8.2-13.13-7.36,0-10.25,5.39-10.25,11.35v24.41h-11.17v-70.41h11.17v31.94Z"/>
        <path class="cls-3" d="M150.79,296.53c13.51,0,24.3,9.41,24.3,23.47s-10.8,23.47-24.3,23.47-24.31-9.41-24.31-23.47,10.8-23.47,24.31-23.47ZM150.79,333.41c8.19,0,13.13-6.42,13.13-13.41s-4.94-13.41-13.13-13.41-13.14,6.43-13.14,13.41,4.94,13.41,13.14,13.41Z"/>
        <path class="cls-3" d="M180.34,307.15v-9.5h9.22v-12.94h11.17v12.94h12.3v9.5h-12.3v19.55c0,4.48,1.3,7.26,6.25,7.26,1.95,0,4.65-.36,6.05-1.39v9.41c-2.33,1.11-6.24,1.49-8.84,1.49-11.84,0-14.63-5.31-14.63-15.83v-20.49h-9.22Z"/>
        <path class="cls-3" d="M243.88,296.53c13.5,0,24.3,9.41,24.3,23.47s-10.8,23.47-24.3,23.47-24.31-9.41-24.31-23.47,10.81-23.47,24.31-23.47ZM243.88,333.41c8.2,0,13.13-6.42,13.13-13.41s-4.94-13.41-13.13-13.41-13.13,6.43-13.13,13.41,4.93,13.41,13.13,13.41Z"/>
        <path class="cls-3" d="M324.65,297.65v40.7c0,16.11-7.82,26.36-25.24,26.36-8.28,0-15.83-1.78-22.16-7.36l6.71-9.13c4.47,4.1,9.12,6.42,15.36,6.42,10.8,0,14.16-6.14,14.16-14.99v-3.26h-.19c-3.26,4.37-9.04,6.52-14.63,6.52-13.4,0-22.25-10.25-22.25-22.91s8.29-23.47,22.07-23.47c6.24,0,12.11,2.42,15.36,7.83h.19v-6.71h10.62ZM287.59,319.91c0,7.07,5.58,12.95,13.13,12.95,8.29,0,13.32-5.69,13.32-13.14s-5.12-13.13-13.22-13.13-13.22,5.39-13.22,13.32Z"/>
        <path class="cls-3" d="M337.34,297.65h11.18v7.07h.19c2.42-5.12,7.35-8.19,13.22-8.19,1.39,0,2.69.27,4,.65v10.8c-1.86-.46-3.63-.84-5.4-.84-10.52,0-12.01,8.85-12.01,11.27v23.94h-11.18v-44.71Z"/>
        <path class="cls-3" d="M401.53,336.21h-.28c-3.17,5.02-8.38,7.26-14.34,7.26-8.29,0-16.3-4.56-16.3-13.41,0-14.53,16.95-15.56,28.13-15.56h2.79v-1.21c0-5.49-4.28-8.38-10.24-8.38-4.66,0-8.94,1.85-11.93,4.66l-5.86-5.87c4.94-5.03,11.92-7.17,18.99-7.17,19.1,0,19.1,13.79,19.1,20.11v25.71h-10.06v-6.14ZM400.87,322.33h-2.33c-6.15,0-16.76.46-16.76,6.88,0,4.1,4.18,5.88,7.82,5.88,7.64,0,11.27-4.01,11.27-10.25v-2.51Z"/>
        <path class="cls-3" d="M423.62,297.65h10.62v6.71h.19c3.26-5.41,9.13-7.83,15.36-7.83,13.79,0,22.08,10.24,22.08,23.47s-8.85,23.47-21.61,23.47c-8.38,0-12.86-3.91-15.18-6.8h-.27v26.91h-11.18v-65.94ZM447.56,306.59c-8.2,0-13.13,6.43-13.13,13.41s4.93,13.41,13.13,13.41,13.13-6.42,13.13-13.41-4.94-13.41-13.13-13.41Z"/>
        <path class="cls-3" d="M493.51,303.89h.19c1.77-3.73,6.23-7.36,13.12-7.36,12.01,0,16.3,8.47,16.3,17.6v28.22h-11.18v-22.63c0-4.95-.38-13.13-8.19-13.13-7.36,0-10.24,5.39-10.24,11.35v24.41h-11.18v-70.41h11.18v31.94Z"/>
        <path class="cls-3" d="M529.76,297.65h12.29l12.48,31.01h.18l11.18-31.01h11.64l-21.14,54.29c-3.25,8.38-7.17,12.76-17.04,12.76-2.89,0-5.78-.38-8.57-1.12l1.4-10.05c1.77.64,3.73,1.1,5.68,1.1,5.5,0,6.99-1.95,8.84-6.61l2.15-5.31-19.09-45.08Z"/>
      </g>
    </g>
  </g>
</svg>