<svg width="47" height="32" viewBox="0 0 47 32" fill="none" xmlns="http://www.w3.org/2000/svg">
<path d="M2.86034 19.476C3.08165 19.0549 3.34837 18.608 3.66728 18.1659L3.72236 10.8652C3.38896 11.7768 3.1203 12.7207 2.90383 13.658L2.85938 19.476H2.86034Z" fill="#EE3124"/>
<path d="M2.00027 21.6182C2.00027 21.6182 2.10658 21.202 2.35107 20.5873L2.382 16.4844C1.97611 19.3643 2.00027 21.6199 2.00027 21.6199V21.6182Z" fill="#EE3124"/>
<path d="M4.41536 9.2288L4.35352 17.3378C4.73911 16.928 5.17978 16.5505 5.68037 16.2375L5.74996 7.07812C5.23873 7.72188 4.79709 8.44952 4.41536 9.2288Z" fill="#EE3124"/>
<path d="M17.5416 4.03906L17.416 20.6169C20.9772 22.6126 23.5739 24.4697 23.5739 24.4697L23.6386 7.66117C22.1272 6.57857 19.8861 5.25557 17.5416 4.03906Z" fill="#B5D334"/>
<path d="M13.373 16.4569C14.5752 16.9151 15.7755 17.475 16.8956 18.0542L16.9854 6.23757C15.7195 5.63254 14.4834 5.11463 13.461 4.78711L13.373 16.4569Z" fill="#FFF200"/>
<path d="M6.54688 15.7932C7.12671 15.556 7.77226 15.4076 8.48836 15.3802L8.56857 4.86719C7.84088 5.1689 7.19436 5.60129 6.62032 6.1321L6.54688 15.7916V15.7932Z" fill="#F99B1C"/>
<path d="M9.31533 3.19218L9.21289 16.6706C10.2469 16.7981 11.3399 17.0595 12.4503 17.4128L12.5585 3.10829C12.4629 3.09215 12.3701 3.07925 12.2822 3.06956C11.2017 2.94211 10.217 2.99373 9.31533 3.19218Z" fill="#FDB913"/>
<path d="M29.582 27.1978C31.1524 27.9497 32.6871 28.5934 33.955 29L34.0651 14.5164C32.573 13.9469 31.0838 13.2531 29.6932 12.5352L29.582 27.1994V27.1978Z" fill="#00B4DF"/>
<path d="M34.7656 27.7154C34.8429 27.7299 34.9173 27.7396 34.9889 27.7493C35.8625 27.8525 36.6578 27.809 37.3865 27.6493L37.4696 16.7587C36.6337 16.6571 35.7504 16.4441 34.8536 16.1602L34.7656 27.717V27.7154Z" fill="#0098BE"/>
<path d="M24.2461 22.6565C25.3294 23.4325 26.9336 24.3812 28.6142 25.2508L28.7041 13.3761C26.1538 11.9466 24.2925 10.6172 24.2925 10.6172L24.2461 22.6565Z" fill="#4CC0AD"/>
<path d="M43.3363 14.0198L43.2812 21.3237C43.6147 20.4121 43.8823 19.4666 44.0988 18.5309L44.1433 12.7129C43.9239 13.134 43.6562 13.5825 43.3363 14.0198Z" fill="#053775"/>
<path d="M38.4336 27.3205C39.1603 27.0188 39.8068 26.5864 40.3809 26.054L40.4553 16.3945C39.8755 16.6317 39.2299 16.7818 38.5138 16.806L38.4336 27.3189V27.3205Z" fill="#005B8E"/>
<path d="M44.9999 10.5723C44.9999 10.5723 44.8936 10.9885 44.6481 11.6032L44.6172 15.7078C45.0231 12.8294 44.9989 10.5723 44.9989 10.5723H44.9999Z" fill="#053775"/>
<path d="M41.2529 25.1112C41.7641 24.4675 42.2067 23.7398 42.5875 22.9606L42.6494 14.8516C42.2638 15.2614 41.8231 15.6389 41.3215 15.9519L41.252 25.1112H41.2529Z" fill="#053775"/>
</svg>
